<?xml version="1.0" standalone="no"?>
<!DOCTYPE svg PUBLIC "-//W3C//DTD SVG 20010904//EN"
 "http://www.w3.org/TR/2001/REC-SVG-20010904/DTD/svg10.dtd">
<svg version="1.0" xmlns="http://www.w3.org/2000/svg"
 width="946.000000pt" height="960.000000pt" viewBox="0 0 946.000000 960.000000"
 preserveAspectRatio="xMidYMid meet">
<g transform="translate(0.000000,960.000000) scale(0.100000,-0.100000)"
fill="#ece522" stroke="none">
<path d="M3170 9516 c0 -17 26 -63 46 -81 15 -14 77 -113 96 -155 63 -136 87
-282 68 -410 -21 -146 -27 -176 -44 -222 -29 -81 -75 -178 -84 -178 -5 0 -12
-13 -15 -29 -7 -33 -63 -120 -83 -128 -8 -3 -14 -11 -14 -17 0 -7 -14 -38 -31
-69 -16 -31 -34 -78 -39 -104 -5 -26 -14 -68 -19 -93 -13 -59 -14 -166 -1
-210 6 -19 15 -65 20 -102 6 -38 19 -85 30 -105 11 -21 20 -46 20 -55 0 -17
58 -110 73 -116 4 -2 7 -10 7 -17 0 -15 78 -105 90 -105 4 0 10 9 13 20 4 16
0 20 -19 20 -19 0 -24 5 -24 25 0 13 -20 66 -45 118 -29 61 -45 109 -45 133
-1 36 -2 38 -15 20 -18 -24 -34 -12 -18 13 9 14 7 34 -7 87 -11 38 -20 105
-21 149 -1 44 -5 85 -10 91 -12 14 1 54 17 54 8 0 14 10 14 25 0 26 36 132 53
153 14 18 41 67 79 142 18 36 39 69 46 73 6 4 12 14 12 22 0 8 8 29 18 47 11
18 25 51 32 73 7 22 16 45 21 50 8 11 18 76 23 164 2 34 9 57 18 62 11 6 14
28 12 97 -1 49 -7 99 -13 110 -6 11 -11 37 -11 57 0 20 -5 57 -12 82 -8 35 -8
50 1 65 12 19 10 19 -19 13 l-32 -7 22 22 21 21 45 -21 c24 -12 52 -32 62 -45
10 -12 27 -25 37 -29 26 -9 75 -52 75 -66 0 -6 16 -28 36 -48 20 -20 43 -50
52 -67 8 -16 21 -34 28 -40 18 -13 89 -151 98 -190 4 -16 20 -62 36 -102 17
-39 30 -89 30 -110 0 -21 5 -56 11 -78 6 -22 14 -127 19 -233 8 -185 9 -195
34 -231 14 -20 26 -48 26 -61 0 -17 25 -48 86 -106 76 -73 113 -99 236 -161
15 -8 30 -18 33 -24 4 -5 14 -9 24 -9 10 0 38 -18 62 -40 24 -21 56 -42 71
-45 15 -4 28 -11 28 -16 0 -5 32 -42 70 -81 39 -39 70 -80 70 -90 0 -12 7 -17
23 -15 18 2 23 -4 25 -28 2 -16 12 -39 21 -52 10 -12 28 -49 41 -83 18 -49 25
-58 36 -49 11 9 14 6 14 -20 0 -17 -4 -31 -8 -31 -5 0 -7 -44 -5 -97 6 -133 0
-157 -34 -161 -16 -2 -124 -5 -240 -6 -124 -2 -218 -7 -225 -13 -7 -6 -33 -13
-58 -17 -25 -3 -83 -13 -130 -21 -47 -9 -102 -19 -123 -22 -21 -3 -41 -11 -44
-19 -3 -8 -19 -14 -37 -14 -17 -1 -48 -7 -68 -14 -21 -8 -50 -11 -65 -7 -44
10 -112 63 -113 88 0 12 -5 25 -10 28 -6 3 -7 18 -4 32 6 22 4 25 -11 19 -15
-6 -17 -2 -12 29 5 33 4 35 -17 29 -21 -5 -23 -3 -19 20 5 25 -10 56 -27 56
-25 0 -13 -43 39 -144 33 -64 61 -134 64 -158 10 -74 19 -118 24 -118 3 0 20
9 37 19 78 47 352 140 417 142 53 1 149 23 158 37 10 17 330 7 439 -14 46 -8
90 -13 98 -10 11 4 14 30 14 117 0 95 -2 110 -15 105 -11 -4 -15 2 -15 22 0
20 3 23 10 12 18 -28 20 12 4 80 -8 36 -17 76 -20 90 -19 96 -30 118 -119 248
-38 55 -244 232 -271 232 -4 0 -15 6 -23 14 -9 8 -41 27 -71 42 -30 16 -91 52
-134 81 -43 29 -85 53 -92 53 -20 0 -84 80 -110 139 -22 50 -24 66 -24 224 0
160 -13 316 -30 362 -23 62 -33 94 -41 130 -6 22 -19 58 -29 80 -11 22 -22 55
-26 72 -3 17 -12 34 -20 37 -8 3 -14 10 -14 16 0 12 -35 63 -62 92 -10 10 -18
25 -18 33 0 17 -105 131 -194 210 -36 32 -170 125 -180 125 -2 0 -33 17 -67
38 -35 21 -73 41 -84 44 -11 3 -28 9 -37 13 -13 5 -18 2 -18 -9z"/>
<path d="M7296 8853 c-2 -10 -7 -34 -11 -53 -9 -51 -56 -192 -70 -210 -6 -8
-16 -26 -23 -40 -18 -38 -36 -64 -49 -73 -7 -4 -13 -13 -13 -19 0 -21 -96
-119 -159 -162 -153 -104 -360 -171 -581 -186 -118 -8 -286 -66 -313 -107 -4
-7 -13 -13 -20 -13 -17 0 -197 -161 -197 -176 0 -2 -16 -24 -35 -50 -19 -25
-35 -51 -35 -59 0 -7 -7 -15 -15 -19 -8 -3 -15 -12 -15 -19 0 -8 -9 -35 -20
-60 -24 -53 -60 -189 -60 -223 0 -13 5 -26 10 -29 6 -3 10 -15 10 -26 0 -10 4
-19 10 -19 5 0 9 19 8 43 -2 47 23 120 83 242 22 44 39 84 39 90 0 5 17 26 38
46 20 20 53 57 72 83 19 25 43 49 53 52 9 3 17 14 17 25 0 14 7 19 28 19 15 0
32 8 38 18 10 15 41 32 154 88 14 6 50 15 80 19 30 4 62 13 70 20 8 7 37 13
67 12 28 0 58 5 66 11 8 7 22 10 30 6 25 -9 166 24 220 52 26 13 56 24 68 24
11 0 35 11 53 25 18 14 37 25 43 25 5 0 18 9 28 20 10 11 23 20 30 20 6 0 30
18 53 40 22 22 48 40 57 40 8 0 15 6 15 14 0 8 7 16 15 20 8 3 15 12 15 19 0
8 15 28 33 45 35 34 42 42 76 90 l24 34 20 -33 c19 -28 21 -47 20 -165 0 -106
-4 -139 -17 -158 -9 -14 -16 -32 -16 -41 0 -8 -9 -41 -20 -72 -11 -32 -20 -68
-20 -81 0 -17 -4 -23 -15 -18 -11 4 -15 -2 -15 -24 0 -17 -4 -30 -10 -30 -5 0
-22 -24 -36 -52 -15 -29 -30 -54 -35 -56 -5 -2 -9 -12 -9 -22 0 -26 -184 -221
-255 -270 -24 -16 -47 -39 -50 -50 -3 -11 -12 -20 -20 -20 -8 0 -17 -9 -20
-20 -4 -11 -18 -26 -33 -34 -52 -27 -95 -96 -105 -166 -3 -19 -10 -55 -16 -80
-16 -70 -13 -179 8 -281 46 -229 45 -325 -7 -566 -5 -24 -15 -50 -23 -59 -15
-19 -35 -52 -44 -74 -4 -8 -11 -22 -16 -30 -5 -8 -16 -30 -24 -47 -10 -21 -22
-33 -35 -33 -14 0 -20 -7 -20 -21 0 -29 -26 -52 -50 -44 -16 5 -20 2 -18 -16
3 -19 -4 -25 -37 -34 -42 -12 -105 -3 -105 15 0 6 -8 10 -18 10 -22 0 -46 39
-40 66 2 12 -8 28 -28 45 -39 31 -134 134 -135 145 0 5 -22 27 -49 49 -27 22
-51 48 -55 58 -3 9 -12 17 -20 17 -7 0 -15 3 -17 8 -1 4 -28 27 -58 52 -30 24
-56 48 -58 52 -2 5 -12 8 -23 8 -10 0 -19 7 -19 15 0 8 -7 15 -16 15 -8 0 -35
15 -59 33 -23 17 -55 41 -70 51 -60 44 -69 55 -51 62 12 5 16 20 16 65 0 32 4
59 8 59 14 0 45 77 39 94 -7 18 -27 22 -27 5 0 -31 -76 -158 -118 -197 l-47
-43 25 -19 c14 -11 38 -22 53 -26 16 -3 31 -12 34 -20 3 -8 12 -14 20 -14 21
0 177 -104 201 -134 11 -14 26 -26 33 -26 13 0 34 -17 125 -101 69 -63 165
-171 174 -195 5 -13 14 -24 19 -24 12 0 98 -129 129 -192 27 -57 43 -60 106
-17 75 50 235 209 275 274 54 86 101 190 101 224 0 17 4 32 8 35 28 17 15 374
-18 476 -20 63 -32 174 -28 256 6 110 30 167 94 220 25 22 53 47 62 57 9 9 22
17 29 17 7 0 13 3 13 8 0 4 25 25 55 47 30 22 54 44 55 49 0 4 34 41 75 81 41
40 75 77 75 82 0 5 13 23 30 39 16 16 30 33 30 37 0 5 10 23 22 40 30 42 97
178 98 197 0 8 7 29 16 45 17 31 23 51 48 175 18 86 22 390 6 406 -5 5 -13 39
-16 74 -3 36 -9 74 -14 85 -5 11 -11 32 -14 48 -7 30 -32 37 -40 10z"/>
<path d="M5050 8182 c0 -10 16 -42 35 -72 19 -30 35 -66 35 -80 0 -14 9 -43
20 -65 17 -33 20 -59 20 -162 0 -68 -4 -131 -9 -141 -5 -9 -14 -41 -21 -70
-19 -84 -98 -218 -168 -286 -36 -34 -39 -42 -31 -64 6 -15 15 -33 22 -40 6 -8
13 -37 15 -65 2 -29 8 -59 13 -69 14 -27 11 -124 -8 -200 -18 -75 -14 -88 32
-88 50 0 150 -33 237 -77 46 -23 64 -16 127 53 34 37 61 70 61 74 0 4 -7 13
-16 21 -13 11 -20 7 -49 -24 -23 -25 -39 -35 -50 -31 -11 5 -18 0 -22 -15 -4
-16 -10 -20 -22 -15 -9 4 -46 9 -83 12 -64 4 -84 14 -55 25 6 3 -3 6 -20 6
-25 1 -33 5 -33 20 0 12 -9 21 -25 25 -13 3 -31 20 -40 36 -17 33 -20 80 -4
80 13 0 2 126 -17 190 -9 29 -10 48 -4 54 6 6 10 17 10 26 0 9 16 35 35 57 19
23 35 48 35 57 0 9 6 19 14 22 26 10 75 128 87 209 7 52 17 84 30 98 11 12 17
27 15 33 -3 7 -2 14 1 17 3 3 6 43 8 89 1 46 0 72 -2 58 -3 -14 -9 -29 -14
-34 -16 -17 -10 51 8 88 13 29 21 34 38 30 13 -3 29 1 38 10 14 15 15 13 10
-19 -5 -29 -3 -35 12 -35 21 0 71 -50 67 -67 -2 -7 1 -13 6 -13 4 0 19 -25 33
-55 13 -30 27 -55 32 -55 4 0 7 -9 7 -19 0 -11 5 -23 10 -26 6 -3 10 -20 10
-36 0 -17 6 -32 15 -35 28 -11 38 -43 22 -68 -12 -18 -12 -25 -2 -39 20 -28
37 -134 30 -191 -7 -53 5 -81 22 -54 15 26 18 251 2 279 -5 10 -9 31 -9 47 0
36 -45 173 -71 216 -10 17 -25 45 -34 61 -46 88 -130 171 -304 298 -57 40
-101 49 -101 19z"/>
<path d="M2485 7434 c-38 -8 -79 -19 -90 -24 -11 -5 -38 -14 -60 -21 -49 -15
-100 -45 -88 -52 4 -3 37 -11 73 -17 109 -20 227 -66 283 -110 30 -24 150
-146 174 -178 12 -16 25 -41 28 -55 4 -14 13 -31 21 -38 8 -6 14 -20 14 -29 0
-10 9 -39 20 -65 11 -26 20 -63 20 -84 0 -20 6 -46 14 -56 8 -11 12 -25 9 -31
-6 -15 27 -34 60 -34 14 0 30 -6 36 -14 7 -8 25 -18 41 -21 16 -3 34 -13 41
-21 13 -16 45 -19 54 -4 8 12 -87 60 -121 60 -23 0 -25 3 -20 25 5 21 3 24
-16 22 -18 -1 -23 3 -21 18 4 43 -87 284 -127 335 -15 19 -33 46 -40 59 -17
32 -125 137 -170 166 -39 25 -66 66 -57 88 7 20 70 28 205 26 93 -1 117 -4
131 -18 9 -9 53 -30 96 -45 44 -16 94 -39 110 -51 17 -12 41 -26 55 -30 27 -9
50 -29 50 -44 0 -6 6 -11 14 -11 8 0 31 -16 52 -35 35 -33 64 -45 64 -27 0 10
-156 155 -173 161 -7 2 -40 24 -74 48 -35 24 -82 51 -105 59 -24 8 -52 21 -64
29 -52 34 -312 45 -439 19z"/>
<path d="M3322 7293 c2 -10 20 -26 40 -35 20 -9 46 -33 58 -53 22 -36 40 -46
40 -21 0 23 -100 126 -122 126 -13 0 -18 -6 -16 -17z"/>
<path d="M5657 7107 c-10 -51 -17 -105 -17 -120 0 -14 -7 -30 -16 -35 -10 -6
-14 -19 -12 -38 4 -38 21 -34 29 8 4 18 16 69 28 113 22 83 27 150 13 159 -5
3 -16 -36 -25 -87z"/>
<path d="M5538 7164 c-5 -4 -8 -15 -8 -24 0 -8 -9 -33 -19 -54 -11 -21 -18
-43 -15 -50 3 -7 -2 -19 -11 -26 -8 -7 -15 -19 -15 -27 0 -7 -10 -27 -22 -43
-16 -22 -19 -33 -11 -41 6 -6 9 -19 5 -28 -5 -14 -4 -14 9 -1 24 26 77 142 89
200 12 56 11 108 -2 94z"/>
<path d="M3490 7130 c0 -5 10 -20 22 -32 27 -27 39 -6 12 23 -19 21 -34 25
-34 9z"/>
<path d="M3350 7090 c0 -10 17 -38 38 -60 23 -25 55 -81 81 -143 25 -56 53
-115 64 -130 14 -21 17 -31 8 -40 -6 -6 -11 -25 -11 -43 0 -25 -11 -43 -51
-83 -28 -28 -57 -51 -64 -51 -8 0 -28 -15 -45 -32 -21 -22 -34 -29 -37 -20 -6
14 -39 16 -48 2 -3 -5 -15 -10 -26 -10 -11 0 -19 -7 -19 -17 0 -19 48 -73 65
-73 6 0 33 23 60 50 33 33 79 65 133 91 89 44 85 38 85 134 0 60 -54 210 -93
259 -49 60 -60 76 -60 86 0 7 -11 21 -24 31 -13 10 -27 30 -30 44 -8 30 -26
34 -26 5z"/>
<path d="M560 6899 c-41 -5 -88 -13 -104 -19 -16 -5 -39 -10 -51 -10 -49 0
-365 -135 -349 -149 5 -5 62 -14 127 -20 130 -14 219 -36 305 -77 72 -35 152
-85 152 -96 0 -4 4 -8 10 -8 11 0 110 -98 110 -109 0 -4 9 -16 20 -26 11 -10
20 -24 20 -32 0 -7 5 -13 10 -13 6 0 15 -11 20 -25 5 -13 20 -41 34 -62 14
-21 37 -67 52 -103 16 -36 31 -67 35 -70 3 -3 9 -21 11 -40 7 -47 23 -89 74
-195 45 -93 114 -177 204 -247 57 -44 187 -114 231 -123 19 -4 43 -13 54 -20
37 -23 170 -38 258 -30 45 4 90 8 100 8 31 2 18 16 -15 15 -93 -1 -365 68
-420 106 -12 9 -32 16 -44 16 -13 0 -35 11 -51 24 -16 14 -41 28 -56 31 -20 5
-27 13 -27 31 0 13 -4 24 -10 24 -5 0 -10 -5 -10 -12 0 -6 -3 -8 -7 -4 -5 4
-8 20 -8 34 0 21 -4 27 -20 25 -29 -3 -77 18 -72 31 3 7 -1 20 -9 31 -8 10
-14 26 -14 36 0 9 -9 28 -20 42 -12 14 -29 50 -40 79 -18 52 -78 195 -104 252
-8 16 -12 35 -9 42 2 7 -5 17 -16 24 -12 6 -21 16 -21 23 0 16 -118 186 -153
222 -10 9 -17 21 -17 26 0 5 -9 9 -20 9 -11 0 -35 16 -52 36 -26 29 -118 84
-142 84 -3 0 -17 11 -32 25 -15 14 -36 25 -48 25 -45 0 -62 35 -39 80 9 19 20
29 29 26 13 -5 96 10 193 34 24 6 51 8 60 5 9 -3 74 -13 146 -21 76 -9 150
-23 177 -34 26 -11 68 -23 93 -27 25 -3 45 -11 46 -17 0 -6 41 -31 91 -56 50
-25 109 -60 132 -77 22 -18 47 -33 54 -33 6 0 12 -6 12 -13 0 -8 23 -26 50
-41 28 -15 50 -30 50 -34 0 -4 17 -16 37 -27 20 -11 44 -27 52 -37 34 -35 258
-67 276 -38 3 5 23 9 43 8 33 -1 78 14 92 31 12 14 52 31 74 31 13 0 55 12 92
26 101 38 177 62 194 62 69 0 314 13 321 18 5 3 9 1 9 -4 0 -5 32 -13 70 -16
39 -4 70 -11 70 -16 0 -5 12 -13 26 -16 15 -4 35 -15 45 -25 23 -23 39 -24 39
-5 0 8 -9 18 -20 21 -11 3 -20 10 -20 15 0 8 -32 24 -155 80 -53 24 -155 31
-285 21 -113 -9 -222 -38 -333 -90 -36 -17 -71 -31 -77 -31 -6 0 -27 -8 -48
-18 -20 -10 -64 -24 -97 -31 -33 -7 -70 -19 -82 -27 -33 -21 -83 -17 -141 11
-29 14 -54 25 -57 25 -13 0 -75 56 -75 68 0 6 -6 12 -12 12 -7 0 -38 23 -68
50 -30 27 -69 57 -87 65 -18 9 -36 21 -40 28 -10 15 -70 47 -89 47 -8 0 -17 7
-20 15 -4 8 -12 15 -18 15 -7 0 -43 16 -82 35 -38 19 -81 35 -95 35 -14 0 -34
7 -45 15 -10 8 -31 15 -46 15 -15 0 -29 4 -32 8 -3 5 -23 9 -45 10 -23 1 -60
6 -83 12 -51 11 -163 11 -268 -1z"/>
<path d="M4380 6699 c-30 -5 -74 -14 -98 -19 -23 -6 -57 -10 -75 -10 -50 0
-341 -92 -427 -135 -56 -28 -146 -78 -160 -90 -8 -6 -35 -22 -60 -34 -25 -12
-49 -28 -55 -34 -5 -7 -23 -21 -40 -31 -95 -61 -342 -305 -389 -385 -6 -10
-24 -38 -40 -62 -58 -88 -75 -116 -121 -204 -26 -49 -54 -111 -62 -138 -7 -26
-23 -63 -34 -82 -11 -19 -18 -39 -14 -45 3 -6 -5 -36 -20 -67 -17 -37 -29 -87
-35 -146 -5 -49 -14 -95 -20 -102 -8 -9 -10 -93 -7 -272 3 -246 10 -311 39
-366 5 -10 6 -22 3 -27 -5 -8 78 -274 93 -297 6 -10 12 -10 28 1 19 15 19 16
-6 62 -25 48 -73 215 -89 309 -5 28 -13 68 -19 90 -18 68 -7 442 16 560 11 55
25 101 31 103 6 2 11 14 11 28 0 13 11 58 25 100 14 42 25 82 25 90 0 12 50
131 72 169 30 52 39 77 35 89 -3 8 1 13 10 12 8 0 20 8 27 19 6 10 17 25 24
33 6 7 12 17 12 21 0 5 12 24 28 44 15 20 40 58 57 84 16 26 42 59 58 72 20
17 25 26 16 31 -6 4 -8 13 -5 19 8 12 42 15 49 4 2 -5 2 -2 1 5 -2 7 7 12 22
12 20 0 25 4 22 23 -2 16 3 23 18 25 12 2 27 16 35 35 15 34 172 149 257 188
23 11 42 26 42 34 0 8 6 12 14 9 12 -5 83 36 96 55 9 15 50 32 60 26 6 -4 22
3 36 14 15 12 33 21 41 21 7 0 16 7 19 15 4 10 15 12 34 8 17 -3 42 1 61 11
18 9 47 16 65 16 18 0 36 5 39 10 3 6 18 7 32 4 19 -5 30 -2 39 11 10 14 22
17 53 12 24 -3 47 0 58 8 16 11 136 28 188 26 11 0 82 -1 159 -1 129 -1 138
-2 143 -20 4 -16 14 -20 47 -20 23 0 46 -4 52 -10 5 -5 42 -12 82 -14 40 -3
100 -14 135 -26 92 -33 239 -105 261 -128 10 -12 32 -24 48 -27 30 -7 78 -34
130 -74 14 -12 30 -21 36 -21 5 0 17 -9 27 -20 10 -11 23 -20 30 -20 6 0 25
-15 41 -32 16 -18 41 -42 54 -54 14 -11 57 -55 97 -97 39 -41 83 -83 97 -93
15 -9 29 -27 32 -40 3 -12 12 -25 20 -28 8 -3 14 -14 14 -25 0 -11 4 -22 9
-26 6 -3 23 -29 40 -58 16 -28 43 -67 60 -86 17 -19 35 -49 40 -67 5 -17 25
-59 45 -93 27 -46 37 -77 41 -124 3 -37 11 -66 20 -73 8 -6 15 -21 15 -32 0
-11 5 -24 11 -28 7 -4 9 -21 5 -42 -3 -20 -1 -42 6 -49 6 -7 11 -37 11 -66 0
-28 2 -39 4 -24 3 16 10 26 16 24 17 -5 22 -336 7 -452 -20 -165 -33 -235 -41
-235 -5 0 -9 -22 -9 -49 0 -29 -6 -53 -14 -60 -7 -6 -16 -30 -19 -54 -3 -23
-16 -62 -28 -86 -11 -24 -28 -67 -36 -95 -8 -27 -26 -66 -39 -85 -13 -20 -24
-41 -24 -48 0 -6 -8 -18 -19 -25 -10 -7 -21 -23 -25 -35 -4 -12 -18 -38 -32
-58 -19 -29 -22 -40 -13 -51 8 -9 8 -14 1 -14 -6 0 -13 4 -17 10 -9 15 -35 0
-35 -21 0 -10 -15 -34 -34 -52 -19 -19 -41 -48 -50 -65 -8 -16 -22 -32 -31
-35 -8 -4 -15 -13 -15 -21 0 -7 -9 -16 -20 -19 -12 -3 -20 -14 -20 -26 0 -12
-6 -21 -14 -21 -8 0 -36 -20 -64 -45 -27 -25 -55 -45 -61 -45 -6 0 -16 -12
-21 -26 -7 -18 -15 -24 -26 -20 -10 4 -34 -12 -67 -44 -29 -28 -60 -50 -70
-50 -19 0 -76 -58 -77 -77 0 -18 4 -17 58 12 101 55 158 94 254 177 17 15 46
38 64 50 19 13 34 31 34 41 0 9 7 17 15 17 8 0 22 11 31 25 9 14 22 25 29 25
8 0 16 9 20 20 3 11 17 28 31 39 13 10 24 22 24 26 0 4 16 26 35 49 19 22 41
48 49 57 16 20 67 109 111 196 17 35 38 71 47 80 17 21 34 64 43 113 4 19 16
50 26 68 10 18 19 42 19 52 0 11 11 48 24 82 15 39 27 95 31 147 3 47 11 91
18 99 17 21 15 428 -2 497 -7 28 -16 78 -21 112 -5 34 -16 78 -25 98 -8 21
-15 45 -15 54 0 9 -9 34 -20 56 -11 22 -20 47 -20 57 0 9 -9 33 -20 53 -11 20
-20 42 -20 50 0 8 -11 31 -25 51 -14 21 -28 48 -31 61 -4 13 -9 23 -14 23 -4
0 -22 28 -39 63 -18 34 -45 77 -60 96 -14 18 -33 44 -41 56 -67 102 -296 326
-392 384 -21 12 -38 27 -38 32 0 5 -7 9 -15 9 -8 0 -15 4 -15 8 0 5 -17 16
-37 26 -61 27 -93 46 -93 57 0 5 -7 9 -15 9 -8 0 -36 13 -62 28 -59 34 -182
82 -278 107 -27 8 -66 19 -85 25 -114 39 -492 70 -610 49z"/>
<path d="M3171 6552 c-14 -26 -7 -42 10 -25 6 6 9 19 7 29 -3 17 -5 17 -17 -4z"/>
<path d="M3192 6503 c2 -10 12 -18 23 -18 11 0 21 8 23 18 3 13 -3 17 -23 17
-20 0 -26 -4 -23 -17z"/>
<path d="M7471 6474 c-12 -25 -21 -50 -21 -54 0 -4 -7 -13 -15 -20 -8 -7 -15
-19 -15 -26 0 -20 -67 -104 -103 -131 -17 -13 -33 -26 -36 -30 -14 -18 -80
-59 -160 -98 -76 -37 -100 -44 -204 -55 -92 -10 -129 -11 -169 -1 -28 6 -52
10 -53 9 -16 -18 -75 -100 -90 -125 -11 -18 -23 -33 -27 -33 -4 0 -18 -10 -31
-22 -44 -42 -110 -93 -136 -104 -98 -42 -101 -43 -94 -61 3 -10 11 -25 18 -33
28 -37 74 -150 80 -197 11 -83 20 -87 202 -91 105 -3 165 0 186 8 81 32 167
74 167 83 0 5 -8 6 -17 2 -10 -4 -30 -10 -45 -13 -16 -2 -28 -8 -28 -12 0 -11
-131 -30 -210 -30 -95 0 -147 17 -159 52 -10 29 -25 36 -37 16 -12 -19 -34 22
-34 63 0 21 -5 41 -11 45 -7 4 -10 27 -7 59 3 41 11 60 33 83 15 17 34 28 41
25 6 -2 20 9 30 26 10 17 23 31 29 31 17 0 82 67 96 100 14 31 32 39 45 19 5
-8 10 -6 16 5 7 12 25 16 83 16 60 0 75 3 75 15 0 12 13 15 60 15 32 0 69 4
82 9 13 5 44 15 71 21 26 7 75 31 108 54 34 22 69 46 78 51 9 6 35 22 58 37
56 35 114 52 125 35 9 -14 1 -95 -14 -147 -16 -55 -58 -140 -68 -140 -6 0 -10
-7 -10 -15 0 -18 -42 -89 -74 -124 -15 -17 -17 -25 -8 -28 26 -10 11 -25 -18
-19 -17 3 -30 1 -30 -4 0 -6 5 -10 11 -10 6 0 -3 -18 -20 -39 -17 -21 -31 -44
-31 -50 0 -6 -13 -14 -30 -17 -31 -7 -57 -30 -46 -41 4 -4 16 -2 26 5 11 7 27
12 35 12 8 0 15 6 15 13 1 6 19 26 41 42 22 17 45 36 52 43 7 8 24 26 38 40
30 31 109 136 109 145 0 3 18 43 39 89 22 46 41 99 44 118 3 19 10 53 16 75
25 94 6 342 -27 353 -6 2 -20 -18 -31 -44z m-629 -473 c-12 -7 -62 -4 -62 5 0
2 17 4 38 4 23 0 32 -3 24 -9z"/>
<path d="M3015 6460 c-7 -11 12 -40 25 -40 15 0 21 33 8 42 -17 11 -26 10 -33
-2z"/>
<path d="M3090 6420 c0 -5 -8 -10 -17 -10 -14 0 -10 -7 15 -31 18 -17 32 -40
32 -53 0 -23 -48 -95 -63 -96 -11 0 -46 -42 -47 -54 0 -4 -13 -24 -30 -43 -16
-18 -30 -43 -30 -53 0 -13 -7 -20 -20 -20 -13 0 -22 -9 -26 -27 -4 -16 -15
-33 -24 -40 -23 -17 -130 -206 -130 -230 0 -11 -9 -28 -19 -37 -11 -10 -23
-32 -27 -49 -3 -17 -24 -64 -45 -104 -22 -41 -39 -80 -39 -87 0 -7 -10 -22
-22 -33 -21 -19 -30 -20 -103 -13 -81 8 -139 4 -130 -10 2 -4 33 -13 67 -20
35 -7 70 -19 79 -26 8 -8 20 -14 26 -14 6 0 27 -12 48 -26 21 -14 43 -23 49
-21 6 3 17 40 25 83 21 129 22 132 37 138 8 3 14 14 14 24 0 10 4 22 8 27 5 6
14 29 21 53 6 23 23 59 36 79 14 20 25 42 25 50 0 19 50 103 61 103 5 0 9 6 9
14 0 8 16 36 36 61 19 26 38 55 42 65 13 33 208 250 225 250 14 0 46 43 47 61
0 9 -16 24 -35 35 -20 10 -43 29 -51 42 -15 22 -44 31 -44 12z m-540 -1010 c0
-5 -9 -10 -21 -10 -11 0 -17 5 -14 10 3 6 13 10 21 10 8 0 14 -4 14 -10z"/>
<path d="M7535 5634 c-73 -8 -170 -37 -202 -61 -17 -12 -36 -23 -41 -23 -13 0
-62 -40 -62 -51 0 -13 17 -11 53 5 18 8 77 27 132 43 87 24 117 28 230 28 91
0 147 -5 185 -17 30 -9 75 -19 100 -23 27 -5 50 -15 58 -27 9 -13 20 -17 34
-13 14 5 21 1 25 -14 3 -12 16 -24 29 -27 13 -3 43 -25 68 -48 24 -22 57 -53
72 -67 16 -15 52 -50 79 -78 28 -28 55 -51 61 -51 6 0 30 -18 54 -40 24 -22
49 -40 57 -40 7 0 16 -7 19 -15 9 -21 161 -105 191 -105 14 0 31 -8 38 -17 11
-15 17 -15 40 -5 17 8 32 9 39 3 26 -21 89 -30 137 -20 33 7 54 7 68 0 11 -6
33 -12 48 -12 15 -1 45 -3 65 -6 l37 -5 -32 -47 c-33 -49 -120 -116 -163 -127
-13 -3 -24 -12 -24 -20 0 -13 -25 -19 -57 -15 -7 1 -13 -7 -13 -18 0 -14 -9
-20 -37 -24 -59 -8 -199 -53 -183 -59 38 -14 -82 -20 -259 -14 -241 9 -241 9
-241 19 0 4 -14 7 -32 7 -17 0 -57 6 -87 14 -163 42 -190 43 -301 14 -72 -19
-172 -74 -195 -107 -9 -14 -35 -39 -57 -54 -22 -16 -43 -37 -45 -48 -3 -10
-11 -19 -19 -19 -7 0 -18 -8 -23 -17 -16 -31 -122 -132 -152 -145 -22 -10 -27
-18 -23 -32 5 -15 3 -18 -11 -13 -10 4 -29 -2 -48 -17 -42 -32 -126 -76 -144
-76 -8 0 -27 -6 -41 -14 -52 -27 -78 -34 -152 -46 -76 -11 -121 -11 -130 2
-11 14 -125 26 -132 14 -5 -7 -8 -6 -8 5 0 12 -8 14 -30 11 -29 -4 -29 -4 -17
27 9 24 9 33 -1 43 -9 9 -12 7 -12 -10 0 -13 -6 -22 -15 -22 -8 0 -15 7 -15
16 0 15 30 90 51 128 10 18 4 88 -10 114 -10 18 -51 -80 -51 -120 0 -25 -15
-62 -52 -128 -19 -35 -20 -42 -6 -56 7 -8 45 -21 83 -28 39 -8 103 -22 143
-31 133 -29 387 -4 434 43 7 7 18 12 25 12 23 0 128 59 153 85 13 14 29 25 35
25 13 0 184 173 210 213 9 15 23 27 31 27 7 0 16 11 20 25 3 14 11 25 18 25 6
0 34 20 61 44 83 72 125 87 237 87 53 0 105 -4 115 -9 40 -21 70 -31 103 -35
19 -2 71 -12 115 -22 65 -14 111 -16 260 -12 171 4 186 7 299 41 122 37 249
93 295 131 14 12 44 32 66 45 67 40 140 109 253 240 67 77 72 85 54 93 -15 7
-35 2 -74 -16 -145 -69 -150 -70 -338 -71 -168 -1 -178 0 -255 28 -44 15 -85
34 -91 42 -6 8 -19 14 -28 14 -20 0 -58 23 -104 62 -18 15 -38 28 -45 28 -7 0
-46 32 -87 70 -41 39 -77 70 -79 70 -10 0 -61 54 -61 65 0 22 -162 148 -204
159 -14 3 -26 11 -26 16 0 6 -10 10 -22 10 -13 0 -52 9 -88 21 -65 20 -261 33
-355 23z m-944 -1556 c-13 -4 -28 -5 -34 -1 -14 9 23 22 42 15 10 -4 8 -8 -8
-14z"/>
<path d="M7053 5557 c-4 -6 -20 -18 -35 -26 -16 -8 -28 -18 -28 -23 0 -13 29
-9 48 8 9 8 28 24 42 34 25 19 25 19 3 20 -12 0 -26 -6 -30 -13z"/>
<path d="M1990 5471 c-125 -10 -33 -21 171 -21 163 0 215 8 157 24 -27 7 -219
5 -328 -3z"/>
<path d="M7106 5423 l-19 -26 31 19 c33 19 42 34 20 34 -7 0 -22 -12 -32 -27z"/>
<path d="M7010 5380 c0 -5 -9 -10 -19 -10 -10 0 -29 -9 -42 -20 l-24 -19 23
-1 c13 0 35 9 49 20 14 11 34 20 44 20 10 0 21 5 24 10 4 6 -7 10 -24 10 -17
0 -31 -4 -31 -10z"/>
<path d="M2078 5345 c-3 -4 -51 -9 -105 -11 -54 -2 -109 -8 -123 -14 -14 -5
-38 -11 -55 -14 -67 -10 -218 -79 -285 -130 -25 -19 -49 -35 -53 -35 -11 -1
-108 -107 -128 -140 -10 -16 -22 -32 -27 -35 -13 -8 -112 -208 -112 -227 0 -8
-7 -23 -15 -33 -18 -24 -20 -62 -3 -72 6 -4 16 0 22 8 21 28 141 113 191 135
153 66 153 66 280 64 66 -1 131 -4 145 -8 100 -22 220 -72 261 -109 22 -20 53
-17 73 5 9 10 38 27 64 36 26 10 51 22 57 26 5 5 17 9 26 9 10 0 24 6 32 14
10 10 50 17 128 22 63 3 119 10 124 15 6 4 10 36 9 71 -2 35 2 108 7 163 l11
100 -29 22 c-15 13 -33 23 -39 23 -6 0 -19 9 -29 20 -10 11 -25 20 -32 20 -8
0 -26 9 -40 20 -15 11 -34 18 -44 15 -9 -3 -35 4 -57 15 -30 16 -66 22 -144
27 -56 3 -106 2 -110 -2z m174 -33 c44 -5 72 -14 80 -24 7 -9 35 -24 62 -33
28 -9 61 -27 74 -41 14 -13 28 -24 32 -24 15 0 34 -96 34 -167 0 -72 0 -73
-41 -112 -32 -31 -51 -41 -89 -46 -27 -3 -82 -20 -121 -36 -40 -16 -81 -29
-91 -29 -10 0 -23 -5 -28 -10 -13 -13 -108 10 -163 38 -59 30 -227 67 -256 56
-14 -6 -17 -4 -12 9 6 15 -2 17 -63 17 -38 0 -71 -4 -74 -8 -8 -13 -114 -34
-136 -27 -11 3 -20 2 -20 -3 0 -6 -15 -12 -32 -14 -18 -3 -40 -8 -49 -12 -24
-11 -33 23 -12 46 9 10 17 31 18 46 0 19 6 28 21 30 11 2 28 16 38 33 10 16
40 51 68 77 28 26 57 53 64 60 7 7 28 20 46 28 18 8 48 26 66 39 18 13 40 21
48 18 8 -3 22 1 32 10 9 8 40 25 67 37 28 12 57 25 65 29 8 3 53 8 100 10 47
1 87 7 89 13 2 7 24 8 60 4 31 -4 86 -11 123 -14z"/>
<path d="M6845 5322 c-6 -5 -45 -17 -88 -27 -42 -9 -80 -21 -83 -26 -7 -12
-111 -11 -119 1 -3 6 -22 10 -42 10 -41 0 -40 15 -7 -160 17 -94 20 -401 4
-480 -32 -158 -31 -154 -17 -165 8 -5 18 -21 22 -34 6 -21 9 -22 17 -8 5 10 5
48 -2 99 -12 100 -12 98 -1 98 5 0 12 -10 14 -22 5 -27 7 1 13 281 3 125 1
218 -5 225 -5 7 -5 24 3 46 8 26 22 40 56 57 25 13 55 23 67 23 12 0 25 5 28
10 3 6 20 10 37 10 33 0 98 27 98 41 0 5 18 9 40 9 22 0 40 5 40 10 0 12 -62
13 -75 2z"/>
<path d="M2486 4732 c-66 -23 -69 -39 -12 -54 29 -8 45 -17 42 -24 -3 -7 2
-18 10 -25 25 -21 46 -69 43 -102 -1 -18 1 -39 4 -47 3 -8 8 -35 12 -60 3 -24
14 -63 24 -85 10 -23 21 -68 25 -101 8 -67 29 -119 51 -128 8 -3 15 -14 15
-25 0 -24 20 -72 36 -86 6 -5 16 -25 22 -42 13 -41 69 -123 83 -123 7 0 8 -12
4 -30 -5 -21 -2 -39 10 -56 14 -21 15 -31 5 -54 -7 -16 -9 -33 -6 -39 3 -5 -8
-20 -26 -32 -57 -40 -60 -43 -104 -86 -24 -24 -47 -43 -52 -43 -9 0 -102 -105
-102 -116 0 -4 -7 -12 -17 -19 -9 -7 -13 -17 -9 -24 7 -11 66 43 137 125 36
43 152 134 169 134 6 0 25 8 43 17 18 10 47 22 66 28 19 6 36 15 38 20 1 6
-18 33 -45 62 -26 28 -56 69 -67 90 -10 21 -24 45 -31 53 -10 13 -37 67 -130
253 -8 16 -14 36 -14 46 0 9 -4 21 -8 27 -20 22 -68 190 -77 268 -3 27 -12 60
-20 72 -10 16 -15 50 -15 112 0 118 -9 127 -104 94z"/>
<path d="M2360 4701 c-14 -5 -40 -15 -57 -24 -18 -10 -40 -17 -50 -17 -10 0
-31 -7 -47 -15 -15 -8 -34 -15 -42 -15 -7 0 -17 -6 -21 -13 -4 -7 -25 -22 -45
-33 -34 -18 -148 -118 -148 -131 0 -3 -13 -22 -29 -42 -32 -41 -103 -184 -132
-269 -19 -54 -39 -120 -73 -238 -17 -60 -45 -119 -92 -190 -35 -52 -115 -104
-161 -104 -12 0 -25 -4 -28 -10 -3 -5 -22 -10 -42 -10 -20 0 -61 -7 -92 -16
-189 -55 -231 -68 -277 -90 -28 -13 -54 -24 -58 -24 -3 0 -45 -25 -91 -55 -47
-30 -90 -55 -95 -55 -6 0 -10 -7 -10 -15 0 -8 -4 -15 -10 -15 -14 0 -114 -91
-122 -112 -4 -10 -13 -18 -20 -18 -8 0 -34 -27 -58 -61 -25 -34 -53 -68 -62
-77 -10 -9 -18 -24 -18 -34 0 -9 -4 -20 -10 -23 -5 -3 -24 -36 -41 -73 -17
-37 -37 -78 -44 -92 -46 -91 -101 -330 -77 -330 5 0 21 15 36 34 38 50 135
148 181 183 82 61 209 117 315 137 138 26 151 27 228 16 168 -24 289 -54 367
-90 11 -5 55 -21 97 -36 73 -25 84 -26 225 -22 145 5 150 6 243 44 52 22 115
51 139 64 24 14 56 32 71 40 14 8 33 21 41 28 8 7 33 28 56 48 23 20 45 44 48
55 4 10 12 19 20 19 7 0 15 8 19 18 3 9 11 24 17 33 7 9 9 24 6 34 -8 19 -19
11 -93 -62 -18 -18 -37 -33 -43 -33 -5 0 -16 -9 -23 -19 -21 -29 -110 -86
-207 -132 -47 -22 -94 -45 -103 -50 -10 -5 -29 -9 -42 -9 -14 0 -28 -5 -32
-11 -10 -17 -303 -3 -358 16 -22 8 -49 15 -58 15 -10 0 -18 5 -18 10 0 6 -12
10 -27 10 -15 0 -36 8 -47 19 -20 17 -88 33 -269 62 -116 19 -258 1 -365 -46
-44 -19 -88 -35 -97 -35 -9 0 -37 -12 -61 -26 -40 -24 -48 -25 -70 -14 -32 18
-40 53 -20 82 9 12 16 28 16 34 0 16 68 117 85 126 7 5 11 17 8 28 -5 20 20
60 38 60 4 0 32 24 61 54 30 29 72 65 93 80 22 14 57 37 78 51 20 14 37 32 37
40 0 8 9 15 20 15 11 0 20 5 20 11 0 5 4 8 10 4 5 -3 17 -1 27 4 10 5 41 19
68 31 28 12 70 32 95 45 25 13 77 29 115 35 39 7 80 18 92 26 12 8 36 14 52
14 16 0 33 5 36 10 3 6 17 10 31 10 55 0 182 88 210 145 20 39 47 87 67 119
10 14 17 38 17 53 0 15 8 42 18 58 10 17 21 47 25 69 3 21 15 55 25 75 11 20
23 52 27 71 7 32 24 65 106 200 15 25 30 55 33 66 5 15 12 20 25 17 13 -3 21
2 26 16 9 29 123 131 165 148 65 26 135 55 151 63 8 4 27 6 42 3 17 -3 27 -1
27 6 0 7 -5 9 -11 6 -6 -4 -13 2 -16 14 -6 23 -6 23 -43 12z"/>
<path d="M2887 4133 c-13 -12 -7 -64 7 -69 8 -3 17 -17 20 -31 4 -13 17 -41
30 -61 12 -20 40 -66 61 -102 21 -36 45 -69 52 -73 7 -4 21 -23 31 -42 18 -36
269 -305 284 -305 4 0 39 -25 75 -55 37 -30 70 -55 75 -55 4 0 41 -22 81 -50
41 -27 81 -50 89 -50 8 0 23 -9 33 -20 10 -11 26 -20 35 -20 9 0 20 -4 26 -9
20 -18 296 -111 332 -111 12 0 30 -4 40 -9 96 -51 628 -59 746 -12 16 6 54 16
85 20 62 10 129 32 209 67 29 13 61 24 71 24 10 0 24 7 31 15 7 8 20 15 30 15
10 0 25 11 34 25 16 24 15 25 -7 30 -17 5 -45 -5 -91 -29 -37 -20 -78 -36 -91
-36 -12 0 -25 -7 -29 -15 -3 -9 -18 -15 -34 -15 -16 0 -44 -7 -62 -16 -18 -9
-52 -19 -76 -22 -24 -2 -44 -8 -44 -11 0 -4 -75 -13 -167 -19 -149 -11 -205
-21 -264 -46 -12 -5 -18 -1 -22 13 -5 19 -13 21 -101 21 -101 0 -182 12 -231
35 -16 8 -70 24 -120 35 -49 12 -95 26 -101 31 -28 23 -111 59 -137 59 -19 0
-38 11 -58 32 -26 29 -31 31 -50 19 -20 -12 -21 -11 -15 13 5 19 3 26 -9 26
-17 0 -82 35 -110 60 -11 9 -39 26 -62 36 -24 10 -43 23 -43 30 0 6 -10 14
-21 17 -15 4 -20 11 -16 21 4 9 2 16 -4 16 -18 0 -79 52 -79 67 0 10 -6 13
-16 9 -22 -8 -43 10 -37 32 3 12 -4 22 -21 30 -14 6 -26 18 -26 27 0 8 -4 15
-10 15 -5 0 -10 7 -10 15 0 9 -8 18 -17 22 -25 8 -63 44 -63 58 0 6 -15 32
-34 56 -19 24 -46 67 -60 95 -15 29 -36 54 -47 57 -12 3 -19 14 -19 30 0 14
-7 38 -14 54 -8 15 -17 36 -20 46 -5 17 -27 23 -39 10z"/>
<path d="M6318 4003 c-32 -78 -59 -133 -66 -133 -4 0 -13 -13 -20 -29 -7 -16
-26 -46 -43 -67 -20 -26 -27 -44 -23 -58 9 -29 67 -117 93 -140 12 -11 21 -25
21 -31 0 -7 23 -30 50 -51 28 -21 50 -42 50 -46 0 -4 5 -8 10 -8 6 0 10 7 10
15 0 8 -4 15 -10 15 -5 0 -10 5 -10 10 0 6 7 10 16 10 14 0 14 3 4 15 -10 12
-16 12 -26 4 -22 -18 -43 -3 -64 45 -10 25 -27 53 -38 64 -22 22 -33 48 -24
56 3 4 5 29 3 57 -2 46 1 55 30 85 21 22 29 38 25 50 -8 21 11 44 37 44 11 0
25 7 31 15 9 13 22 14 86 4 41 -6 124 -14 184 -16 67 -3 104 -8 95 -14 -8 -4
-24 -6 -35 -3 -12 3 -25 1 -28 -5 -7 -10 38 -16 85 -12 9 1 33 -19 54 -43 21
-25 46 -48 56 -51 11 -4 22 -16 25 -28 3 -12 37 -47 74 -77 38 -30 69 -61 69
-67 1 -8 14 -13 31 -13 31 0 58 -12 95 -41 11 -8 33 -16 48 -17 15 -1 36 -6
45 -11 9 -4 47 -14 84 -21 84 -15 101 -32 63 -62 -15 -11 -32 -27 -39 -35 -34
-42 -51 -51 -104 -58 -30 -4 -65 -13 -76 -20 -29 -18 -181 -37 -291 -36 -54 0
-231 35 -249 50 -6 4 -29 11 -50 14 -35 6 -38 5 -24 -9 8 -8 39 -21 69 -29 29
-8 55 -19 57 -25 2 -5 25 -10 52 -10 28 0 69 -9 97 -22 76 -34 233 -31 383 7
63 16 117 32 118 37 2 4 28 20 58 34 30 14 54 29 54 34 0 5 10 12 22 16 20 6
101 72 175 141 12 12 23 31 23 43 0 24 -25 26 -93 5 -66 -20 -247 -21 -317 -2
-30 9 -97 37 -149 62 -77 39 -108 62 -177 133 -46 47 -81 88 -79 92 3 4 -4 15
-15 25 -11 10 -20 24 -20 30 0 21 -29 26 -93 14 -50 -9 -83 -8 -172 5 -72 11
-112 22 -118 31 -4 8 -16 15 -25 15 -9 0 -32 9 -50 20 -41 25 -40 25 -54 -7z"/>
<path d="M6030 3568 c-47 -60 -61 -76 -94 -106 -16 -15 -55 -53 -88 -84 -33
-32 -74 -67 -92 -77 -17 -11 -42 -31 -55 -45 -14 -14 -30 -26 -36 -26 -7 0
-45 -22 -86 -48 -41 -27 -110 -65 -154 -86 -44 -21 -93 -44 -108 -52 -16 -8
-37 -14 -48 -14 -10 0 -34 -9 -54 -20 -20 -11 -48 -20 -64 -20 -34 0 -54 -19
-41 -40 6 -8 10 -25 10 -36 0 -12 6 -24 13 -27 7 -3 19 -23 27 -46 7 -22 21
-48 32 -57 10 -10 18 -27 18 -39 0 -12 16 -42 35 -66 19 -24 35 -50 35 -56 0
-7 7 -13 15 -13 9 0 19 -8 22 -17 6 -15 38 -49 114 -118 9 -8 19 -15 23 -15 3
0 25 -12 49 -27 103 -67 231 -100 439 -113 95 -7 198 -18 229 -26 31 -8 70
-14 85 -15 16 0 54 -12 83 -27 62 -30 129 -108 149 -172 6 -21 25 -62 42 -90
16 -28 30 -60 30 -71 0 -11 7 -22 15 -25 8 -4 15 -12 15 -20 0 -42 270 -374
304 -374 6 0 26 -13 43 -29 17 -15 47 -38 67 -50 20 -13 36 -27 36 -32 0 -5 7
-9 17 -9 14 0 91 -34 196 -86 16 -8 43 -14 61 -14 18 0 36 -4 41 -9 14 -13
192 -39 315 -47 88 -5 108 -4 118 9 11 13 9 18 -10 31 -12 9 -28 16 -34 16
-29 0 -154 83 -220 146 -71 69 -144 161 -166 211 -10 23 -22 45 -27 47 -5 3
-12 26 -16 52 -3 25 -16 67 -27 92 -18 44 -19 61 -14 252 3 113 9 265 12 338
4 80 2 137 -4 145 -5 6 -13 30 -17 52 -7 42 -80 201 -96 211 -5 3 -9 11 -9 19
0 8 -16 31 -35 52 -20 21 -50 57 -68 79 -32 42 -186 164 -207 164 -6 0 -30 10
-53 22 -51 26 -143 42 -125 21 6 -7 22 -13 35 -13 20 0 24 -4 20 -20 -6 -22 0
-25 22 -11 20 13 54 -6 47 -25 -3 -8 1 -14 9 -14 8 0 24 -9 35 -20 11 -11 25
-20 31 -20 5 0 39 -29 75 -65 36 -36 69 -65 74 -65 5 0 12 -9 15 -20 4 -11 16
-31 28 -44 52 -56 93 -126 117 -201 7 -22 16 -44 20 -50 14 -20 33 -205 25
-248 -16 -90 -20 -411 -6 -499 2 -17 20 -6 24 15 2 12 2 -11 -1 -50 -4 -61 -2
-74 12 -79 9 -3 16 -17 16 -33 0 -36 54 -147 79 -163 12 -7 21 -20 21 -28 0
-8 9 -21 20 -28 22 -14 27 -48 8 -55 -8 -3 -6 -6 4 -6 10 -1 22 -10 28 -21 6
-11 17 -20 25 -20 10 0 15 -11 15 -34 0 -27 -5 -35 -24 -40 -14 -3 -35 -2 -49
3 -13 5 -30 6 -37 1 -14 -9 -67 6 -90 26 -8 7 -27 15 -42 19 -15 4 -32 13 -38
20 -5 7 -21 10 -35 7 -17 -3 -27 1 -31 12 -3 9 -25 25 -48 36 -22 11 -60 34
-83 50 -57 42 -193 178 -193 195 0 9 -7 11 -22 7 -18 -4 -20 -2 -16 16 4 14
-3 29 -23 48 -16 15 -29 32 -29 36 0 5 -13 23 -30 41 -16 18 -30 38 -30 45 0
8 -16 37 -35 66 -19 29 -35 60 -35 69 0 9 -8 24 -18 34 -25 26 -69 94 -77 121
-19 66 -203 172 -298 172 -20 0 -39 5 -42 10 -4 6 -28 10 -53 10 -139 -4 -397
37 -460 72 -18 10 -44 18 -58 18 -32 0 -64 17 -64 34 0 15 -21 26 -50 26 -11
0 -20 10 -24 25 -4 14 -14 29 -23 32 -32 12 -131 121 -143 157 -6 20 -22 44
-36 52 -20 14 -23 21 -18 59 4 26 2 45 -5 49 -7 5 -6 14 5 31 9 13 13 29 9 35
-4 6 5 10 23 10 16 0 40 9 53 19 14 10 45 25 69 32 25 7 63 25 84 41 22 15 48
28 57 28 9 0 19 7 23 15 3 8 14 15 25 15 10 0 41 15 68 34 26 18 58 36 71 40
12 4 27 16 32 27 6 10 17 19 25 19 7 0 17 9 20 21 4 11 22 27 41 35 19 8 60
41 92 74 31 33 63 60 70 60 7 0 21 14 30 30 13 23 22 29 37 24 11 -3 33 -7 49
-9 16 -2 38 -13 50 -24 45 -45 83 -70 92 -61 5 5 19 0 33 -11 19 -16 22 -22
12 -29 -10 -6 -8 -10 9 -15 15 -5 25 -2 31 6 13 21 12 23 -31 43 -22 11 -40
24 -40 31 0 6 -15 18 -32 26 -18 8 -37 23 -43 34 -5 11 -21 36 -35 55 -14 19
-30 44 -35 55 -17 33 -39 28 -75 -17z"/>
<path d="M2985 3519 c-32 -10 -61 -23 -65 -27 -10 -14 -59 -42 -74 -42 -8 0
-26 -13 -39 -30 -14 -16 -30 -30 -35 -30 -8 0 -22 -22 -22 -36 0 -12 49 -2 54
11 3 8 15 15 26 15 11 0 20 7 20 15 0 9 10 15 26 15 17 0 28 6 31 19 4 16 18
21 78 26 87 8 100 5 145 -37 19 -18 48 -40 64 -48 27 -14 30 -20 32 -72 3 -59
17 -98 34 -98 6 0 10 6 10 13 0 7 14 30 31 50 29 35 30 41 19 63 -8 13 -18 24
-24 24 -17 0 -143 113 -169 151 -28 42 -59 46 -142 18z"/>
<path d="M6439 3420 c13 -11 35 -20 50 -20 l26 0 -25 20 c-14 11 -36 20 -50
19 l-25 0 24 -19z"/>
<path d="M2708 3325 c-24 -32 -23 -47 5 -43 17 2 23 11 25 36 4 38 -6 41 -30
7z"/>
<path d="M6356 3301 c5 -5 34 -19 64 -31 30 -12 64 -26 75 -30 11 -5 36 -12
55 -16 31 -6 33 -5 21 10 -7 9 -19 16 -26 16 -7 0 -46 13 -86 30 -72 29 -123
40 -103 21z"/>
<path d="M2662 3271 c-8 -5 -12 -16 -10 -24 2 -11 7 -14 16 -8 8 5 12 16 10
24 -2 11 -7 14 -16 8z"/>
<path d="M3397 3243 c-4 -3 -7 -15 -7 -25 0 -10 -7 -21 -15 -24 -8 -4 -15 -18
-15 -34 0 -15 -7 -33 -15 -40 -8 -7 -15 -22 -15 -34 0 -11 -7 -30 -15 -40 -9
-11 -15 -40 -14 -65 l1 -46 11 32 c7 17 15 35 20 39 4 4 7 20 7 36 0 15 4 28
8 28 4 0 16 13 25 30 10 16 29 32 43 35 13 3 35 7 49 10 17 4 25 1 25 -9 0
-17 27 -30 57 -27 12 1 31 -7 41 -17 20 -20 92 -29 92 -11 0 8 -164 109 -178
109 -5 0 -21 14 -37 30 -27 29 -54 38 -68 23z"/>
<path d="M2614 3198 c-29 -35 -45 -68 -38 -79 9 -15 44 20 44 44 0 11 7 29 17
39 9 10 12 18 6 18 -5 0 -18 -10 -29 -22z"/>
<path d="M2442 3180 c-14 -24 -16 -50 -2 -50 12 0 30 33 30 54 0 22 -13 20
-28 -4z"/>
<path d="M3223 3192 c-6 -4 -21 -36 -32 -72 -12 -36 -26 -73 -31 -82 -6 -10
-10 -32 -11 -50 0 -18 -6 -49 -13 -68 -12 -34 -13 -34 -20 -11 l-8 23 -37 -36
c-20 -20 -41 -36 -46 -36 -16 0 -85 -34 -85 -42 0 -4 -17 -16 -39 -27 -21 -11
-59 -40 -85 -65 -26 -25 -51 -46 -56 -46 -13 0 -35 -41 -32 -60 1 -8 -8 -20
-20 -25 -26 -12 -78 -108 -78 -147 0 -20 -6 -27 -22 -30 -13 -2 -27 -13 -33
-25 -5 -13 -14 -23 -19 -23 -13 0 -35 32 -36 51 0 9 -7 30 -15 45 -8 16 -15
43 -15 61 0 17 -5 33 -12 35 -15 5 -14 92 2 183 7 39 13 89 14 111 0 24 8 50
19 61 9 11 17 29 17 41 0 11 5 24 10 27 6 3 10 27 10 53 0 45 -1 46 -16 24 -8
-12 -12 -27 -8 -34 4 -7 3 -8 -5 -4 -7 5 -17 -6 -27 -31 -9 -21 -24 -56 -35
-79 -10 -22 -19 -54 -19 -70 0 -16 -7 -56 -15 -89 -18 -77 -18 -218 0 -270 8
-22 15 -46 15 -54 0 -52 154 -351 180 -351 14 0 23 65 16 123 -4 36 0 76 14
132 11 44 20 88 20 98 0 9 9 25 20 34 11 10 20 23 20 30 0 19 42 85 75 118 17
17 45 47 62 67 35 41 118 95 225 147 74 36 84 45 86 81 2 42 34 164 48 185 8
11 14 27 14 36 0 9 7 22 15 29 27 22 17 50 -12 32z"/>
<path d="M3683 3063 c-29 -11 -9 -32 50 -52 34 -12 69 -25 77 -28 8 -3 20 -7
25 -7 9 -1 83 -24 216 -67 31 -10 112 -27 180 -38 175 -27 183 -31 208 -104 9
-28 10 -41 2 -51 -7 -8 -9 -31 -6 -57 13 -92 19 -94 25 -9 4 47 12 94 17 105
18 33 43 126 37 136 -3 5 -44 9 -92 9 -139 1 -332 32 -427 69 -11 4 -57 20
-103 36 -45 15 -99 36 -119 46 -36 19 -65 23 -90 12z"/>
<path d="M3246 2858 c-36 -191 -20 -303 71 -493 29 -62 35 -72 104 -170 119
-171 177 -281 187 -359 8 -67 -6 -151 -32 -191 -9 -13 -16 -31 -16 -39 0 -8
-4 -16 -9 -18 -12 -4 -103 -199 -116 -248 -4 -14 -13 -38 -20 -55 -49 -119
-72 -448 -39 -562 9 -30 14 -57 11 -59 -3 -3 4 -29 15 -57 11 -29 27 -74 35
-102 20 -69 79 -188 130 -262 24 -34 43 -64 43 -67 0 -3 10 -16 23 -29 12 -12
32 -36 43 -52 18 -24 24 -28 35 -17 11 10 11 21 1 58 -31 115 -24 312 14 439
65 213 223 395 470 541 105 63 164 103 198 139 22 22 40 43 40 47 1 4 11 16
22 27 12 10 31 40 44 65 12 25 26 46 31 46 5 0 9 5 9 11 0 6 11 37 24 68 32
74 39 95 38 103 -1 3 5 28 13 55 10 32 15 93 15 184 0 129 -1 137 -25 169 -14
19 -26 32 -27 29 -1 -2 -4 -85 -7 -184 -5 -136 -9 -179 -18 -177 -12 2 -18
-37 -15 -93 1 -37 -6 -49 -23 -35 -13 11 -15 8 -15 -19 0 -28 -14 -58 -58
-126 -6 -11 -22 -39 -34 -63 -12 -23 -28 -40 -34 -38 -14 5 -44 -24 -44 -42 0
-7 -4 -12 -9 -12 -5 0 -32 -18 -59 -40 -28 -21 -62 -42 -76 -46 -14 -3 -26
-10 -26 -15 0 -5 -16 -17 -35 -26 -19 -9 -35 -21 -35 -25 0 -5 -13 -14 -28
-21 -32 -13 -102 -69 -135 -107 -12 -13 -47 -52 -78 -85 -64 -70 -89 -107 -89
-133 0 -11 -11 -31 -25 -46 -14 -15 -25 -34 -25 -42 0 -9 -6 -22 -14 -30 -8
-7 -17 -33 -21 -56 -6 -44 -17 -79 -40 -133 -7 -16 -15 -39 -17 -50 -2 -15
-10 -19 -27 -17 -25 4 -70 48 -71 70 0 6 -4 12 -10 12 -5 0 -10 14 -10 30 0
17 -4 30 -9 30 -11 0 -27 43 -35 90 -3 19 -10 58 -16 85 -12 58 -24 174 -23
225 1 66 16 171 24 176 5 3 9 25 9 50 0 27 6 52 15 60 9 9 15 34 15 59 0 24 4
46 8 49 13 8 68 126 76 161 9 39 53 132 66 140 6 3 10 31 10 61 0 30 5 54 10
54 13 0 13 95 -1 139 -27 87 -108 250 -131 262 -10 5 -18 18 -18 28 0 11 -6
21 -13 24 -8 3 -26 29 -42 59 -15 29 -36 64 -46 77 -11 13 -19 30 -19 38 0 8
-12 38 -27 67 -14 28 -30 59 -35 69 -5 10 -11 57 -14 105 -3 47 -9 91 -12 97
-4 5 -7 56 -7 112 0 139 -16 152 -39 31z"/>
<path d="M4956 2942 c-8 -14 -46 -20 -168 -31 -59 -6 -115 -14 -125 -19 -10
-6 -24 -32 -31 -59 -8 -26 -18 -60 -24 -75 -6 -15 -8 -35 -4 -44 3 -8 -1 -22
-9 -30 -17 -17 -21 -109 -5 -119 6 -4 10 5 10 19 0 14 3 26 8 26 9 0 32 72 32
103 0 12 13 38 30 57 16 19 29 41 30 48 0 6 8 12 18 12 11 0 30 9 43 21 20 17
31 19 72 14 31 -5 53 -3 62 5 21 18 65 4 65 -20 0 -11 11 -27 24 -35 16 -11
28 -33 36 -66 14 -56 25 -68 46 -47 13 12 11 22 -12 74 -15 32 -33 84 -39 114
-9 43 -16 56 -32 58 -12 2 -24 -1 -27 -6z"/>
<path d="M5080 2640 c0 -20 8 -34 23 -45 13 -8 29 -26 35 -39 12 -27 8 -158
-8 -216 -9 -33 -8 -44 6 -65 13 -20 14 -28 4 -40 -16 -19 -15 -135 1 -197 6
-24 13 -56 16 -73 3 -16 14 -40 24 -53 10 -13 21 -37 24 -53 4 -18 16 -35 31
-41 27 -13 31 -33 8 -42 -8 -3 -12 -11 -9 -16 9 -15 -14 -40 -35 -40 -10 0
-32 11 -48 25 -17 14 -39 25 -50 25 -18 0 -165 107 -183 134 -4 5 -14 6 -23 3
-12 -5 -16 0 -16 16 0 14 -17 40 -45 66 -25 24 -45 49 -45 57 0 8 -9 24 -20
37 -12 12 -27 29 -34 37 -7 8 -17 26 -21 40 -10 36 -32 68 -55 80 -20 11 -20
10 1 -42 11 -29 27 -60 35 -69 8 -8 14 -22 14 -31 0 -8 12 -32 26 -53 14 -21
36 -58 49 -84 21 -39 174 -201 191 -201 3 0 36 -18 73 -40 37 -22 73 -40 81
-40 7 0 21 -7 31 -16 10 -9 37 -18 61 -21 24 -3 48 -9 53 -13 12 -10 141 -30
189 -30 24 0 36 5 36 13 0 15 -31 47 -45 47 -14 0 -159 154 -175 186 -8 16
-18 31 -21 34 -8 6 -36 70 -54 125 -13 38 -21 89 -30 183 -6 64 19 235 38 263
26 37 20 65 -25 117 -24 26 -52 60 -63 75 -26 36 -45 35 -45 -3z"/>
<path d="M4470 2421 c0 -11 5 -23 10 -26 6 -3 10 3 10 14 0 11 -4 23 -10 26
-5 3 -10 -3 -10 -14z"/>
<path d="M4605 2400 c-8 -24 1 -40 21 -40 16 0 17 5 8 38 -8 27 -21 28 -29 2z"/>
<path d="M4474 2348 c3 -13 6 -26 6 -30 0 -5 7 -8 15 -8 17 0 18 4 9 38 -4 12
-13 22 -21 22 -11 0 -14 -6 -9 -22z"/>
<path d="M4515 2243 c7 -40 20 -61 31 -50 10 9 -17 87 -29 87 -5 0 -6 -16 -2
-37z"/>
<path d="M4550 2140 c0 -20 5 -30 15 -30 16 0 19 17 9 44 -10 26 -24 18 -24
-14z"/>
</g>
</svg>
